<?xml version="1.0" encoding="UTF-8" standalone="no"?>
<!-- Created with Inkscape (http://www.inkscape.org/) -->

<svg
   width="512"
   height="512"
   viewBox="0 0 512 512"
   version="1.1"
   id="svg5"
   inkscape:version="1.1.1 (3bf5ae0d25, 2021-09-20)"
   sodipodi:docname="abstract-n-shape.svg"
   xmlns:inkscape="http://www.inkscape.org/namespaces/inkscape"
   xmlns:sodipodi="http://sodipodi.sourceforge.net/DTD/sodipodi-0.dtd"
   xmlns="http://www.w3.org/2000/svg"
   xmlns:svg="http://www.w3.org/2000/svg">
  <sodipodi:namedview
     id="namedview7"
     pagecolor="#ffffff"
     bordercolor="#666666"
     borderopacity="1.0"
     inkscape:pageshadow="2"
     inkscape:pageopacity="0.0"
     inkscape:pagecheckerboard="0"
     inkscape:document-units="px"
     showgrid="false"
     showborder="false"
     inkscape:object-paths="false"
     inkscape:snap-intersection-paths="false"
     inkscape:object-nodes="true"
     inkscape:snap-smooth-nodes="true"
     inkscape:zoom="1.2285156"
     inkscape:cx="247.4531"
     inkscape:cy="183.14785"
     inkscape:window-width="1920"
     inkscape:window-height="1048"
     inkscape:window-x="0"
     inkscape:window-y="32"
     inkscape:window-maximized="0"
     inkscape:current-layer="layer1" />
  <defs
     id="defs2" />
  <g
     inkscape:label="Layer 1"
     inkscape:groupmode="layer"
     id="layer1">
    <path
       id="rect1089"
       style="color:#000000;opacity:1;fill:none;stroke:#000000;stroke-width:5;stroke-linecap:round;stroke-linejoin:round;stroke-miterlimit:4;stroke-dasharray:none"
       d="m -143.6952,-89.6567 c -45.72449,0 -83.1871,38.888394 -83.1871,86.3531081 V 270.76047 l 41.75414,-11.61334 V -3.3035919 c 0,-24.2022911 18.11801,-43.0098491 41.43296,-43.0098491 23.31495,0 41.43296,18.807558 41.43296,43.0098491 V 95.726898 196.0207 c 0,47.46471 37.462604,86.35311 83.187104,86.35311 h 41.75414 c -45.72449,0 -83.1871,-38.8884 -83.1871,-86.35311 V 89.561428 -3.3035919 c 0,-47.4647141 -37.46261,-86.3531081 -83.187104,-86.3531081 z M 22.357824,-78.043363 V 196.0207 c 0,16.22429 -8.16445,29.99121 -20.5558897,37.32626 6.09327,3.60687 13.1915697,5.68359 20.8770697,5.68359 23.31495,0 41.43296,-18.80756 41.43296,-43.00985 V -66.430027 Z"
       sodipodi:nodetypes="ssccssscsscscsscscsscc" />
    <path
       id="path2357"
       style="color:#000000;opacity:1;fill:none;stroke:#000000;stroke-width:5;stroke-linecap:round;stroke-linejoin:round;stroke-miterlimit:4;stroke-dasharray:none"
       d="m -143.6952,-89.6567 c 45.724494,0 83.187104,38.888394 83.187104,86.3531081 V 89.561428 95.726898 196.0207 c 0,47.46471 41.43296,86.35311 83.1871,86.35311 45.72449,0 83.187106,-38.8884 83.187106,-86.35311 V -78.043363 L 64.111964,-66.430027 V 196.0207 c 0,24.20229 -18.11801,43.00985 -41.43296,43.00985 -23.31494969,0 -41.43296,-18.80756 -41.43296,-43.00985 V 95.726898 89.561428 -3.3035919 c 0,-47.4647141 -37.4626,-86.3531081 -83.187104,-86.3531081 z m 0,43.343259 c -23.31495,0 -41.43296,18.807558 -41.43296,43.0098491 V 259.14713 l 41.75414,11.61334 V -3.3035919 c 0,-16.2242911 8.16445,-29.9912081 20.55589,-37.3262561 -6.09327,-3.606876 -13.19157,-5.683593 -20.87707,-5.683593 z"
       sodipodi:nodetypes="csccsssccsssccsscssccscs" />
    <path
       id="path2642"
       style="opacity:1;fill:none;stroke:#000000;stroke-width:5;stroke-linecap:round;stroke-linejoin:round;stroke-miterlimit:4;stroke-dasharray:none;stroke-opacity:1"
       d="m -185.12816,259.14673 -41.75414,11.61334 41.75414,11.61334 41.75414,-11.61334 z"
       sodipodi:nodetypes="ccccc" />
    <path
       id="path3506"
       style="opacity:1;fill:none;stroke:#000000;stroke-width:5;stroke-linecap:round;stroke-linejoin:round;stroke-miterlimit:4;stroke-dasharray:none;stroke-opacity:1"
       d="M 64.111964,-66.430024 105.86611,-78.043363 64.111964,-89.656696 22.357824,-78.043363 Z"
       sodipodi:nodetypes="ccccc" />
    <path
       id="path4208"
       style="color:#000000;fill:#ff00ff;stroke-linecap:round;stroke-linejoin:round;-inkscape-stroke:none"
       d="M 359.45117 49.5625 C 312.30924 49.5625 273.76367 89.633949 273.76367 138.41406 L 273.76367 412.47852 A 2.50025 2.50025 0 0 0 273.84961 412.65234 A 2.50025 2.50025 0 0 0 274.69922 414.36133 A 2.50025 2.50025 0 0 0 274.94531 414.50586 A 2.50025 2.50025 0 0 0 275.59375 414.88672 L 317.34766 426.5 A 2.50025 2.50025 0 0 0 318.6875 426.5 L 360.44141 414.88672 A 2.50025 2.50025 0 0 0 361.27734 414.4707 A 2.50025 2.50025 0 0 0 361.28906 414.45703 A 2.50025 2.50025 0 0 0 362.22656 412.56836 A 2.50025 2.50025 0 0 0 362.27148 412.47852 L 362.27148 138.41406 C 362.27148 123.57188 369.48049 111.09186 380.42383 104.04688 C 391.31594 111.10113 398.38477 123.61941 398.38477 138.41406 L 398.38477 237.44531 L 398.38477 337.74023 C 398.38477 386.52035 436.92837 426.5918 484.07031 426.5918 L 525.82617 426.5918 C 572.9681 426.5918 611.51172 386.52035 611.51172 337.74023 L 611.51172 63.675781 A 2.50025 2.50025 0 0 0 611.4668 63.585938 A 2.50025 2.50025 0 0 0 610.5293 61.697266 A 2.50025 2.50025 0 0 0 610.51758 61.683594 A 2.50025 2.50025 0 0 0 609.68164 61.267578 L 567.92773 49.652344 A 2.50025 2.50025 0 0 0 566.58789 49.652344 L 524.83398 61.267578 A 2.50025 2.50025 0 0 0 524.18555 61.648438 A 2.50025 2.50025 0 0 0 523.93945 61.792969 A 2.50025 2.50025 0 0 0 523.08984 63.501953 A 2.50025 2.50025 0 0 0 523.00391 63.675781 L 523.00391 337.74023 C 523.00391 352.58181 515.79609 365.06227 504.85352 372.10742 C 493.96141 365.05317 486.89258 352.53488 486.89258 337.74023 L 486.89258 237.44531 L 486.89258 231.2793 L 486.89258 138.41406 C 486.89258 89.633949 448.34703 49.5625 401.20508 49.5625 L 359.45117 49.5625 z M 359.45117 54.5625 C 403.75814 54.5625 440.13867 92.264856 440.13867 138.41406 L 440.13867 231.2793 L 440.13867 237.44531 L 440.13867 337.74023 C 440.13867 339.71088 440.23235 341.66015 440.36719 343.59961 C 440.4274 344.54069 440.50504 345.47511 440.59375 346.4082 C 440.61862 346.6495 440.65083 346.88817 440.67773 347.12891 C 444.23948 381.65896 467.11338 410.46398 497.8457 421.5918 L 484.07031 421.5918 C 439.76335 421.5918 403.38477 383.88944 403.38477 337.74023 L 403.38477 237.44531 L 403.38477 138.41406 C 403.38477 121.41748 394.76312 106.86371 381.70703 99.044922 A 2.50025 2.50025 0 0 0 381.60156 98.9375 C 381.48898 98.870855 381.36324 98.825425 381.25 98.759766 C 378.26 97.019914 375.04328 95.642239 371.64648 94.658203 C 371.2197 94.534169 370.78586 94.431551 370.35352 94.320312 C 369.04743 93.985559 367.71853 93.713826 366.36523 93.5 C 365.86984 93.421202 365.38014 93.333504 364.87891 93.271484 C 363.09941 93.052887 361.29683 92.904297 359.45117 92.904297 C 336.333 92.904297 317.94807 110.53504 315.74023 133.70898 C 315.59305 135.25391 315.51758 136.82344 315.51758 138.41406 L 315.51758 398.9668 L 278.76367 409.18945 L 278.76367 138.41406 C 278.76367 92.264857 315.14422 54.5625 359.45117 54.5625 z M 387.43164 54.5625 L 401.20508 54.5625 C 445.51205 54.5625 481.89258 92.264855 481.89258 138.41406 L 481.89258 231.2793 L 481.89258 237.44531 L 481.89258 337.74023 C 481.89258 354.76591 490.54302 369.34146 503.63672 377.15039 A 2.50025 2.50025 0 0 0 503.67383 377.2168 C 503.78963 377.28534 503.91866 377.33289 504.03516 377.40039 C 507.02277 379.13795 510.23726 380.51298 513.63086 381.49609 C 514.0577 381.62013 514.49143 381.72275 514.92383 381.83398 C 516.22991 382.16874 517.55882 382.44047 518.91211 382.6543 C 519.40756 382.7331 519.89716 382.82079 520.39844 382.88281 C 522.17794 383.10141 523.98051 383.25 525.82617 383.25 C 550.48555 383.25 569.75781 363.19018 569.75781 337.74023 L 569.75781 77.1875 L 606.51172 66.964844 L 606.51172 337.74023 C 606.51172 383.88944 570.13313 421.5918 525.82617 421.5918 C 485.62435 421.5918 445.13867 383.75003 445.13867 337.74023 L 445.13867 231.2793 L 445.13867 138.41406 C 445.13867 135.62512 444.97919 132.8757 444.73242 130.15039 C 444.65646 129.30964 444.5362 128.48444 444.4375 127.65039 C 444.21471 125.77159 443.94507 123.90995 443.60938 122.06836 C 443.43445 121.10654 443.24783 120.15213 443.04297 119.20117 C 442.66773 117.46325 442.23273 115.75144 441.75977 114.05273 C 441.51049 113.15514 441.28556 112.24929 441.00977 111.36328 C 440.26194 108.96696 439.43966 106.60495 438.50391 104.30078 C 438.50205 104.29621 438.4999 104.29168 438.49805 104.28711 C 438.16695 103.46995 437.76987 102.69151 437.41602 101.88672 C 436.74023 100.354 436.05319 98.829035 435.29688 97.34375 C 434.73058 96.22843 434.11792 95.147741 433.50781 94.060547 C 432.89298 92.968036 432.26538 91.886893 431.60742 90.824219 C 430.87826 89.643092 430.13414 88.478642 429.35352 87.335938 C 428.78121 86.500558 428.17722 85.692842 427.57812 84.878906 C 424.19247 80.265692 420.39561 76.009279 416.22461 72.158203 C 415.97491 71.928273 415.73665 71.685949 415.48438 71.458984 C 414.05432 70.168958 412.57463 68.947308 411.06445 67.755859 C 410.74148 67.501673 410.41829 67.249555 410.0918 67 C 408.50073 65.780908 406.88063 64.611139 405.20898 63.505859 C 405.20282 63.501783 405.19757 63.496262 405.19141 63.492188 C 405.17314 63.480142 405.15304 63.471016 405.13477 63.458984 C 399.62061 59.821158 393.69367 56.829826 387.43164 54.5625 z M 567.25781 54.65625 L 599.68359 63.675781 L 567.25977 72.695312 L 567.25781 72.695312 L 534.83203 63.675781 L 567.25781 54.65625 z M 528.00391 66.964844 L 564.75781 77.1875 L 564.75781 337.74023 C 564.75781 360.69482 547.79664 378.25 525.82617 378.25 C 520.05354 378.25 514.68095 376.96587 509.82812 374.74414 C 520.90944 366.55427 528.00391 353.17156 528.00391 337.74023 L 528.00391 66.964844 z M 359.45117 97.904297 C 365.2238 97.904297 370.59641 99.188419 375.44922 101.41016 C 364.36791 109.60002 357.27148 122.98273 357.27148 138.41406 L 357.27148 409.18945 L 320.51758 398.9668 L 320.51758 138.41406 C 320.51758 136.9794 320.58329 135.56529 320.71289 134.17578 C 322.65697 113.33311 338.85386 97.904297 359.45117 97.904297 z M 318.01758 403.45898 L 318.01953 403.45898 L 350.44336 412.47852 L 318.01758 421.49805 L 285.5918 412.47852 L 318.01758 403.45898 z " />
    <path
       id="path4305"
       style="color:#000000;fill:#0000ff;stroke-linecap:round;stroke-linejoin:round;-inkscape-stroke:none"
       d="m 364.45117,49.5625 c -47.14193,0 -85.6875,40.071449 -85.6875,88.85156 v 274.06446 a 2.50025,2.50025 0 0 0 0.0859,0.17382 2.50025,2.50025 0 0 0 0.84961,1.70899 2.50025,2.50025 0 0 0 0.24609,0.14453 2.50025,2.50025 0 0 0 0.64844,0.38086 L 322.34766,426.5 a 2.50025,2.50025 0 0 0 1.33984,0 l 41.75391,-11.61328 a 2.50025,2.50025 0 0 0 0.83593,-0.41602 2.50025,2.50025 0 0 0 0.0117,-0.0137 2.50025,2.50025 0 0 0 0.9375,-1.88867 2.50025,2.50025 0 0 0 0.0449,-0.0898 V 138.41406 c 0,-14.84218 7.20901,-27.3222 18.15235,-34.36718 10.89211,7.05425 17.96094,19.57253 17.96094,34.36718 v 99.03125 100.29492 c 0,48.78012 38.5436,88.85157 85.68554,88.85157 h 41.75586 c 47.14193,0 85.68555,-40.07145 85.68555,-88.85157 V 63.675781 a 2.50025,2.50025 0 0 0 -0.0449,-0.08984 2.50025,2.50025 0 0 0 -0.9375,-1.888672 2.50025,2.50025 0 0 0 -0.0117,-0.01367 2.50025,2.50025 0 0 0 -0.83594,-0.416016 L 572.92773,49.652344 a 2.50025,2.50025 0 0 0 -1.33984,0 l -41.75391,11.615234 a 2.50025,2.50025 0 0 0 -0.64843,0.38086 2.50025,2.50025 0 0 0 -0.2461,0.144531 2.50025,2.50025 0 0 0 -0.84961,1.708984 2.50025,2.50025 0 0 0 -0.0859,0.173828 V 337.74023 c 0,14.84158 -7.20782,27.32204 -18.15039,34.36719 -10.89211,-7.05425 -17.96094,-19.57254 -17.96094,-34.36719 V 237.44531 231.2793 138.41406 c 0,-48.780111 -38.54555,-88.85156 -85.6875,-88.85156 z m 0,5 c 44.30697,0 80.6875,37.702356 80.6875,83.85156 v 92.86524 6.16601 100.29492 c 0,1.97065 0.0937,3.91992 0.22852,5.85938 0.0602,0.94108 0.13785,1.8755 0.22656,2.80859 0.0249,0.2413 0.0571,0.47997 0.084,0.72071 3.56175,34.53005 26.43565,63.33507 57.16797,74.46289 h -13.77539 c -44.30696,0 -80.68554,-37.70236 -80.68554,-83.85157 V 237.44531 138.41406 c 0,-16.99658 -8.62165,-31.55035 -21.67774,-39.369138 A 2.50025,2.50025 0 0 0 386.60156,98.9375 c -0.11258,-0.06664 -0.23832,-0.112075 -0.35156,-0.177734 -2.99,-1.739852 -6.20672,-3.117527 -9.60352,-4.101563 -0.42678,-0.124034 -0.86062,-0.226652 -1.29296,-0.337891 -1.30609,-0.334753 -2.63499,-0.606486 -3.98829,-0.820312 -0.49539,-0.0788 -0.98509,-0.166496 -1.48632,-0.228516 -1.7795,-0.218597 -3.58208,-0.367187 -5.42774,-0.367187 -23.11817,0 -41.5031,17.630743 -43.71094,40.804683 -0.14718,1.54493 -0.22265,3.11446 -0.22265,4.70508 V 398.9668 l -36.75391,10.22265 V 138.41406 c 0,-46.149203 36.38055,-83.85156 80.6875,-83.85156 z m 27.98047,0 h 13.77344 c 44.30697,0 80.6875,37.702355 80.6875,83.85156 v 92.86524 6.16601 100.29492 c 0,17.02568 8.65044,31.60123 21.74414,39.41016 a 2.50025,2.50025 0 0 0 0.0371,0.0664 c 0.1158,0.0685 0.24483,0.11609 0.36133,0.18359 2.98761,1.73756 6.2021,3.11259 9.5957,4.0957 0.42684,0.12404 0.86057,0.22666 1.29297,0.33789 1.30608,0.33476 2.63499,0.60649 3.98828,0.82032 0.49545,0.0788 0.98505,0.16649 1.48633,0.22851 1.7795,0.2186 3.58207,0.36719 5.42773,0.36719 24.65938,0 43.93164,-20.05982 43.93164,-45.50977 V 77.1875 L 611.51172,66.964844 V 337.74023 c 0,46.14921 -36.37859,83.85157 -80.68555,83.85157 -40.20182,0 -80.6875,-37.84177 -80.6875,-83.85157 V 231.2793 138.41406 c 0,-2.78894 -0.15948,-5.53836 -0.40625,-8.26367 -0.076,-0.84075 -0.19622,-1.66595 -0.29492,-2.5 -0.22279,-1.8788 -0.49243,-3.74044 -0.82812,-5.58203 -0.17493,-0.96182 -0.36155,-1.91623 -0.56641,-2.86719 -0.37524,-1.73792 -0.81024,-3.44973 -1.2832,-5.14844 -0.24928,-0.89759 -0.47421,-1.80344 -0.75,-2.68945 -0.74783,-2.39632 -1.57011,-4.75833 -2.50586,-7.0625 -0.002,-0.005 -0.004,-0.009 -0.006,-0.0137 -0.3311,-0.81716 -0.72818,-1.5956 -1.08203,-2.40039 -0.67579,-1.53272 -1.36283,-3.057685 -2.11914,-4.54297 -0.5663,-1.11532 -1.17896,-2.196009 -1.78907,-3.283203 -0.61483,-1.092511 -1.24243,-2.173654 -1.90039,-3.236328 -0.72916,-1.181127 -1.47328,-2.345577 -2.2539,-3.488281 -0.57231,-0.83538 -1.1763,-1.643096 -1.7754,-2.457032 -3.38565,-4.613214 -7.18251,-8.869627 -11.35351,-12.720703 -0.2497,-0.22993 -0.48796,-0.472254 -0.74023,-0.699219 -1.43006,-1.290026 -2.90975,-2.511676 -4.41993,-3.703125 C 415.74148,67.501673 415.41829,67.249555 415.0918,67 c -1.59107,-1.219092 -3.21117,-2.388861 -4.88282,-3.494141 -0.006,-0.0041 -0.0114,-0.0096 -0.0176,-0.01367 -0.0183,-0.01205 -0.0384,-0.02117 -0.0566,-0.0332 -5.51416,-3.637826 -11.4411,-6.629158 -17.70313,-8.896484 z m 179.82617,0.09375 32.42578,9.019531 -32.42382,9.019531 h -0.002 l -32.42578,-9.019531 z m -39.2539,12.308594 36.7539,10.222656 v 260.55273 c 0,22.95459 -16.96117,40.50977 -38.93164,40.50977 -5.77263,0 -11.14522,-1.28413 -15.99805,-3.50586 11.08132,-8.18987 18.17579,-21.57258 18.17579,-37.00391 z M 364.45117,97.904297 c 5.77263,0 11.14524,1.284122 15.99805,3.505863 -11.08131,8.18986 -18.17774,21.57257 -18.17774,37.0039 V 409.18945 L 325.51758,398.9668 V 138.41406 c 0,-1.43466 0.0657,-2.84877 0.19531,-4.23828 1.94408,-20.84267 18.14097,-36.271483 38.73828,-36.271483 z M 323.01758,403.45898 h 0.002 l 32.42383,9.01954 -32.42578,9.01953 -32.42578,-9.01953 z" />
    <path
       id="path4325"
       style="color:#000000;fill:#892ca0;stroke-linecap:round;stroke-linejoin:round;-inkscape-stroke:none"
       d="m 354.45121,49.5625 c -47.14193,0 -85.6875,40.071449 -85.6875,88.85156 v 274.06446 a 2.50025,2.50025 0 0 0 0.0859,0.17382 2.50025,2.50025 0 0 0 0.84961,1.70899 2.50025,2.50025 0 0 0 0.24609,0.14453 2.50025,2.50025 0 0 0 0.64844,0.38086 L 312.3477,426.5 a 2.50025,2.50025 0 0 0 1.33984,0 l 41.75391,-11.61328 a 2.50025,2.50025 0 0 0 0.83593,-0.41602 2.50025,2.50025 0 0 0 0.0117,-0.0137 2.50025,2.50025 0 0 0 0.9375,-1.88867 2.50025,2.50025 0 0 0 0.0449,-0.0898 V 138.41406 c 0,-14.84218 7.20901,-27.3222 18.15235,-34.36718 10.89211,7.05425 17.96094,19.57253 17.96094,34.36718 v 99.03125 100.29492 c 0,48.78012 38.5436,88.85157 85.68554,88.85157 h 41.75586 c 47.14193,0 85.68555,-40.07145 85.68555,-88.85157 V 63.675781 a 2.50025,2.50025 0 0 0 -0.0449,-0.08984 2.50025,2.50025 0 0 0 -0.9375,-1.888672 2.50025,2.50025 0 0 0 -0.0117,-0.01367 2.50025,2.50025 0 0 0 -0.83594,-0.416016 L 562.92777,49.652344 a 2.50025,2.50025 0 0 0 -1.33984,0 l -41.75391,11.615234 a 2.50025,2.50025 0 0 0 -0.64843,0.38086 2.50025,2.50025 0 0 0 -0.2461,0.144531 2.50025,2.50025 0 0 0 -0.84961,1.708984 2.50025,2.50025 0 0 0 -0.0859,0.173828 V 337.74023 c 0,14.84158 -7.20782,27.32204 -18.15039,34.36719 -10.89211,-7.05425 -17.96094,-19.57254 -17.96094,-34.36719 V 237.44531 231.2793 138.41406 c 0,-48.780111 -38.54555,-88.85156 -85.6875,-88.85156 z m 0,5 c 44.30697,0 80.6875,37.702356 80.6875,83.85156 v 92.86524 6.16601 100.29492 c 0,1.97065 0.0937,3.91992 0.22852,5.85938 0.0602,0.94108 0.13785,1.8755 0.22656,2.80859 0.0249,0.2413 0.0571,0.47997 0.084,0.72071 3.56175,34.53005 26.43565,63.33507 57.16797,74.46289 h -13.77539 c -44.30696,0 -80.68554,-37.70236 -80.68554,-83.85157 V 237.44531 138.41406 c 0,-16.99658 -8.62165,-31.55035 -21.67774,-39.369138 A 2.50025,2.50025 0 0 0 376.6016,98.9375 c -0.11258,-0.06664 -0.23832,-0.112075 -0.35156,-0.177734 -2.99,-1.739852 -6.20672,-3.117527 -9.60352,-4.101563 -0.42678,-0.124034 -0.86062,-0.226652 -1.29296,-0.337891 -1.30609,-0.334753 -2.63499,-0.606486 -3.98829,-0.820312 -0.49539,-0.0788 -0.98509,-0.166496 -1.48632,-0.228516 -1.7795,-0.218597 -3.58208,-0.367187 -5.42774,-0.367187 -23.11817,0 -41.5031,17.630743 -43.71094,40.804683 -0.14718,1.54493 -0.22265,3.11446 -0.22265,4.70508 V 398.9668 l -36.75391,10.22265 V 138.41406 c 0,-46.149203 36.38055,-83.85156 80.6875,-83.85156 z m 27.98047,0 h 13.77344 c 44.30697,0 80.6875,37.702355 80.6875,83.85156 v 92.86524 6.16601 100.29492 c 0,17.02568 8.65044,31.60123 21.74414,39.41016 a 2.50025,2.50025 0 0 0 0.0371,0.0664 c 0.1158,0.0685 0.24483,0.11609 0.36133,0.18359 2.98761,1.73756 6.2021,3.11259 9.5957,4.0957 0.42684,0.12404 0.86057,0.22666 1.29297,0.33789 1.30608,0.33476 2.63499,0.60649 3.98828,0.82032 0.49545,0.0788 0.98505,0.16649 1.48633,0.22851 1.7795,0.2186 3.58207,0.36719 5.42773,0.36719 24.65938,0 43.93164,-20.05982 43.93164,-45.50977 V 77.1875 L 601.51176,66.964844 V 337.74023 c 0,46.14921 -36.37859,83.85157 -80.68555,83.85157 -40.20182,0 -80.6875,-37.84177 -80.6875,-83.85157 V 231.2793 138.41406 c 0,-2.78894 -0.15948,-5.53836 -0.40625,-8.26367 -0.076,-0.84075 -0.19622,-1.66595 -0.29492,-2.5 -0.22279,-1.8788 -0.49243,-3.74044 -0.82812,-5.58203 -0.17493,-0.96182 -0.36155,-1.91623 -0.56641,-2.86719 -0.37524,-1.73792 -0.81024,-3.44973 -1.2832,-5.14844 -0.24928,-0.89759 -0.47421,-1.80344 -0.75,-2.68945 -0.74783,-2.39632 -1.57011,-4.75833 -2.50586,-7.0625 -0.002,-0.005 -0.004,-0.009 -0.006,-0.0137 -0.3311,-0.81716 -0.72818,-1.5956 -1.08203,-2.40039 -0.67579,-1.53272 -1.36283,-3.057685 -2.11914,-4.54297 -0.5663,-1.11532 -1.17896,-2.196009 -1.78907,-3.283203 -0.61483,-1.092511 -1.24243,-2.173654 -1.90039,-3.236328 -0.72916,-1.181127 -1.47328,-2.345577 -2.2539,-3.488281 -0.57231,-0.83538 -1.1763,-1.643096 -1.7754,-2.457032 -3.38565,-4.613214 -7.18251,-8.869627 -11.35351,-12.720703 -0.2497,-0.22993 -0.48796,-0.472254 -0.74023,-0.699219 -1.43006,-1.290026 -2.90975,-2.511676 -4.41993,-3.703125 -0.32283,-0.254156 -0.64602,-0.506274 -0.97251,-0.755829 -1.59107,-1.219092 -3.21117,-2.388861 -4.88282,-3.494141 -0.006,-0.0041 -0.0114,-0.0096 -0.0176,-0.01367 -0.0183,-0.01205 -0.0384,-0.02117 -0.0566,-0.0332 -5.51416,-3.637826 -11.4411,-6.629158 -17.70313,-8.896484 z m 179.82617,0.09375 32.42578,9.019531 -32.42382,9.019531 h -0.002 l -32.42578,-9.019531 z m -39.2539,12.308594 36.7539,10.222656 v 260.55273 c 0,22.95459 -16.96117,40.50977 -38.93164,40.50977 -5.77263,0 -11.14522,-1.28413 -15.99805,-3.50586 11.08132,-8.18987 18.17579,-21.57258 18.17579,-37.00391 z M 354.45121,97.904297 c 5.77263,0 11.14524,1.284122 15.99805,3.505863 -11.08131,8.18986 -18.17774,21.57257 -18.17774,37.0039 V 409.18945 L 315.51762,398.9668 V 138.41406 c 0,-1.43466 0.0657,-2.84877 0.19531,-4.23828 1.94408,-20.84267 18.14097,-36.271483 38.73828,-36.271483 z M 313.01762,403.45898 h 0.002 l 32.42383,9.01954 -32.42578,9.01953 -32.42578,-9.01953 z" />
  </g>
</svg>
